<svg xmlns="http://www.w3.org/2000/svg" xmlns:xlink="http://www.w3.org/1999/xlink" width="1440" zoomAndPan="magnify" viewBox="0 0 1080 1079.999946" height="1440" preserveAspectRatio="xMidYMid meet" version="1.0"><defs><clipPath id="3540ec2e25"><path d="M 17.933594 517.230469 L 1067.234375 517.230469 L 1067.234375 880.667969 L 17.933594 880.667969 Z M 17.933594 517.230469 " clip-rule="nonzero"/></clipPath><clipPath id="80aa33f9c0"><path d="M 0.933594 0.230469 L 1050.234375 0.230469 L 1050.234375 363.667969 L 0.933594 363.667969 Z M 0.933594 0.230469 " clip-rule="nonzero"/></clipPath><clipPath id="97a7e22e7c"><rect x="0" width="1051" y="0" height="364"/></clipPath><clipPath id="a2931ad5ce"><path d="M 597.183594 89.859375 L 972 89.859375 L 972 517.386719 L 597.183594 517.386719 Z M 597.183594 89.859375 " clip-rule="nonzero"/></clipPath><clipPath id="53184dd032"><path d="M 972 517.230469 L 597.183594 517.230469 L 597.183594 89.859375 Z M 972 517.230469 " clip-rule="nonzero"/></clipPath><clipPath id="fd6c66c254"><path d="M 0.183594 0.859375 L 375 0.859375 L 375 428.386719 L 0.183594 428.386719 Z M 0.183594 0.859375 " clip-rule="nonzero"/></clipPath><clipPath id="5df870df04"><path d="M 375 428.230469 L 0.183594 428.230469 L 0.183594 0.859375 Z M 375 428.230469 " clip-rule="nonzero"/></clipPath><clipPath id="c601f5e5e6"><rect x="0" width="375" y="0" height="429"/></clipPath><clipPath id="143a2c2e59"><path d="M 116.503906 89.695312 L 491.324219 89.695312 L 491.324219 517.222656 L 116.503906 517.222656 Z M 116.503906 89.695312 " clip-rule="nonzero"/></clipPath><clipPath id="80ec16fc17"><path d="M 491.324219 89.851562 L 491.324219 517.222656 L 116.503906 517.222656 Z M 491.324219 89.851562 " clip-rule="nonzero"/></clipPath><clipPath id="d65801a650"><path d="M 0.503906 0.761719 L 375.324219 0.761719 L 375.324219 428.222656 L 0.503906 428.222656 Z M 0.503906 0.761719 " clip-rule="nonzero"/></clipPath><clipPath id="3b7f32b1da"><path d="M 375.324219 0.851562 L 375.324219 428.222656 L 0.503906 428.222656 Z M 375.324219 0.851562 " clip-rule="nonzero"/></clipPath><clipPath id="1149102424"><rect x="0" width="376" y="0" height="429"/></clipPath><clipPath id="2571a7a2b4"><path d="M 490.355469 89.859375 L 598.152344 89.859375 L 598.152344 517.230469 L 490.355469 517.230469 Z M 490.355469 89.859375 " clip-rule="nonzero"/></clipPath><clipPath id="78dfc0db79"><path d="M 0.355469 0.859375 L 108.152344 0.859375 L 108.152344 428.230469 L 0.355469 428.230469 Z M 0.355469 0.859375 " clip-rule="nonzero"/></clipPath><clipPath id="8176865687"><rect x="0" width="109" y="0" height="429"/></clipPath><clipPath id="7e1fa639cc"><path d="M 17.933594 89.859375 L 392.753906 89.859375 L 392.753906 521 L 17.933594 521 Z M 17.933594 89.859375 " clip-rule="nonzero"/></clipPath><clipPath id="84c4122af9"><path d="M 392.753906 520.488281 L 17.933594 520.488281 L 17.933594 89.859375 Z M 392.753906 520.488281 " clip-rule="nonzero"/></clipPath><clipPath id="bbf36bbce4"><path d="M 0.933594 0.859375 L 375.753906 0.859375 L 375.753906 431.558594 L 0.933594 431.558594 Z M 0.933594 0.859375 " clip-rule="nonzero"/></clipPath><clipPath id="811303fcb3"><path d="M 375.753906 431.488281 L 0.933594 431.488281 L 0.933594 0.859375 Z M 375.753906 431.488281 " clip-rule="nonzero"/></clipPath><clipPath id="f0906481a8"><rect x="0" width="376" y="0" height="432"/></clipPath><clipPath id="2527355e12"><path d="M 692.414062 89 L 1067.230469 89 L 1067.230469 520.480469 L 692.414062 520.480469 Z M 692.414062 89 " clip-rule="nonzero"/></clipPath><clipPath id="78869e612f"><path d="M 1067.230469 89.851562 L 1067.230469 520.480469 L 692.414062 520.480469 Z M 1067.230469 89.851562 " clip-rule="nonzero"/></clipPath><clipPath id="06679a1fa3"><path d="M 0.414062 1 L 375.230469 1 L 375.230469 431.480469 L 0.414062 431.480469 Z M 0.414062 1 " clip-rule="nonzero"/></clipPath><clipPath id="37bb1c2c13"><path d="M 375.230469 0.851562 L 375.230469 431.480469 L 0.414062 431.480469 Z M 375.230469 0.851562 " clip-rule="nonzero"/></clipPath><clipPath id="7d60f27cd2"><rect x="0" width="376" y="0" height="432"/></clipPath><clipPath id="a85151edd9"><path d="M 17.933594 880.667969 L 1067.234375 880.667969 L 1067.234375 933.023438 L 17.933594 933.023438 Z M 17.933594 880.667969 " clip-rule="nonzero"/></clipPath><clipPath id="712bbea561"><path d="M 0.933594 0.667969 L 1050.234375 0.667969 L 1050.234375 53.023438 L 0.933594 53.023438 Z M 0.933594 0.667969 " clip-rule="nonzero"/></clipPath><clipPath id="f2a6290206"><rect x="0" width="1051" y="0" height="54"/></clipPath></defs><g clip-path="url(#3540ec2e25)"><g transform="matrix(1, 0, 0, 1, 17, 517)"><g clip-path="url(#97a7e22e7c)"><g clip-path="url(#80aa33f9c0)"><path fill="#efefef" d="M 0.933594 0.230469 L 1050.085938 0.230469 L 1050.085938 363.667969 L 0.933594 363.667969 Z M 0.933594 0.230469 " fill-opacity="1" fill-rule="nonzero"/></g></g></g></g><g clip-path="url(#a2931ad5ce)"><g clip-path="url(#53184dd032)"><g transform="matrix(1, 0, 0, 1, 597, 89)"><g clip-path="url(#c601f5e5e6)"><g clip-path="url(#fd6c66c254)"><g clip-path="url(#5df870df04)"><path fill="#cb0605" d="M 0.183594 0.859375 L 375 0.859375 L 375 428.386719 L 0.183594 428.386719 Z M 0.183594 0.859375 " fill-opacity="1" fill-rule="nonzero"/></g></g></g></g></g></g><g clip-path="url(#143a2c2e59)"><g clip-path="url(#80ec16fc17)"><g transform="matrix(1, 0, 0, 1, 116, 89)"><g clip-path="url(#1149102424)"><g clip-path="url(#d65801a650)"><g clip-path="url(#3b7f32b1da)"><path fill="#cb0605" d="M 0.503906 428.222656 L 0.503906 0.695312 L 375.324219 0.695312 L 375.324219 428.222656 Z M 0.503906 428.222656 " fill-opacity="1" fill-rule="nonzero"/></g></g></g></g></g></g><g clip-path="url(#2571a7a2b4)"><g transform="matrix(1, 0, 0, 1, 490, 89)"><g clip-path="url(#8176865687)"><g clip-path="url(#78dfc0db79)"><path fill="#cb0605" d="M 0.355469 0.859375 L 108.152344 0.859375 L 108.152344 428.253906 L 0.355469 428.253906 Z M 0.355469 0.859375 " fill-opacity="1" fill-rule="nonzero"/></g></g></g></g><g clip-path="url(#7e1fa639cc)"><g clip-path="url(#84c4122af9)"><g transform="matrix(1, 0, 0, 1, 17, 89)"><g clip-path="url(#f0906481a8)"><g clip-path="url(#bbf36bbce4)"><g clip-path="url(#811303fcb3)"><path fill="#efefef" d="M 0.933594 0.859375 L 375.753906 0.859375 L 375.753906 431.316406 L 0.933594 431.316406 Z M 0.933594 0.859375 " fill-opacity="1" fill-rule="nonzero"/></g></g></g></g></g></g><g clip-path="url(#2527355e12)"><g clip-path="url(#78869e612f)"><g transform="matrix(1, 0, 0, 1, 692, 89)"><g clip-path="url(#7d60f27cd2)"><g clip-path="url(#06679a1fa3)"><g clip-path="url(#37bb1c2c13)"><path fill="#efefef" d="M 0.414062 431.480469 L 0.414062 1.023438 L 375.230469 1.023438 L 375.230469 431.480469 Z M 0.414062 431.480469 " fill-opacity="1" fill-rule="nonzero"/></g></g></g></g></g></g><g clip-path="url(#a85151edd9)"><g transform="matrix(1, 0, 0, 1, 17, 880)"><g clip-path="url(#f2a6290206)"><g clip-path="url(#712bbea561)"><path fill="#0071a4" d="M 0.933594 0.667969 L 1050.300781 0.667969 L 1050.300781 53.023438 L 0.933594 53.023438 Z M 0.933594 0.667969 " fill-opacity="1" fill-rule="nonzero"/></g></g></g></g></svg>